<svg width="252" height="237" viewBox="0 0 252 237" fill="none" xmlns="http://www.w3.org/2000/svg" role="img" aria-labelledby="title desc">
  <title id="title">Locale mockup matched grid mark</title>
  <desc id="desc">Vectorized Locale neighbourhood grid mark matched to the approved third mockup.</desc>
  <path d="M 10.0 3.0 L 5.0 7.0 L 3.0 11.0 L 3.0 143.0 L 74.0 152.0 L 75.0 3.0 Z" fill="#1F2326"/>
  <path d="M 3.0 160.0 L 3.0 202.0 L 5.0 210.0 L 13.0 223.0 L 22.0 230.0 L 31.0 234.0 L 74.0 235.0 L 75.0 168.0 Z" fill="#1F2326"/>
  <path d="M 168.0 178.0 L 168.0 235.0 L 241.0 235.0 L 249.0 229.0 L 250.0 186.0 Z" fill="#1F2326"/>
  <path d="M 91.0 170.0 L 91.0 235.0 L 151.0 235.0 L 152.0 176.0 Z" fill="#1F2326"/>
  <path d="M 250.0 118.0 L 178.0 118.0 L 169.0 161.0 L 249.0 169.0 Z" fill="#2E7D59"/>
  <path d="M 91.0 3.0 L 91.0 88.0 L 134.0 78.0 L 134.0 3.0 Z" fill="#2E7D59"/>
  <path d="M 162.0 118.0 L 136.0 118.0 L 134.0 116.0 L 134.0 94.0 L 91.0 105.0 L 91.0 153.0 L 152.0 160.0 L 155.0 152.0 Z" fill="#2E7D59"/>
  <path d="M 185.0 3.0 L 185.0 12.0 L 192.0 12.0 L 206.0 16.0 L 219.0 24.0 L 233.0 40.0 L 238.0 51.0 L 240.0 66.0 L 249.0 66.0 L 249.0 57.0 L 245.0 43.0 L 236.0 27.0 L 226.0 17.0 L 209.0 7.0 L 195.0 3.0 Z" fill="#2E7D59"/>
  <path d="M 185.0 28.0 L 185.0 37.0 L 192.0 37.0 L 203.0 42.0 L 212.0 52.0 L 216.0 66.0 L 225.0 66.0 L 223.0 54.0 L 217.0 43.0 L 210.0 36.0 L 194.0 28.0 Z" fill="#2E7D59"/>
  <path d="M 171.0 56.0 L 163.0 59.0 L 156.0 66.0 L 153.0 73.0 L 153.0 85.0 L 159.0 95.0 L 163.0 98.0 L 171.0 101.0 L 179.0 101.0 L 185.0 99.0 L 193.0 92.0 L 197.0 83.0 L 197.0 74.0 L 193.0 65.0 L 188.0 60.0 L 178.0 56.0 Z" fill="#F5A623"/>
</svg>
